name Walk1.mot
datacolumns 19
datarows 12
range 2.28000000 2.33500000
endheader

                time	   L_ground_force_vx	   L_ground_force_vy	   L_ground_force_vz	   L_ground_force_px	   L_ground_force_py	   L_ground_force_pz	   R_ground_force_vx	   R_ground_force_vy	   R_ground_force_vz	   R_ground_force_px	   R_ground_force_py	   R_ground_force_pz	   L_ground_torque_x	   L_ground_torque_y	   L_ground_torque_z	   R_ground_torque_x	   R_ground_torque_y	   R_ground_torque_z	
          2.28000000	         -7.94443339	         22.78301843	          1.36255453	          0.38454060	          0.00000000	          0.22510486	         -0.00000000	         -0.00000000	         -0.00000000	          0.00000000	          0.00000000	         -0.00000000	          0.00000000	         -0.20668921	          0.00000000	          0.00000000	         -0.00000000	          0.00000000	
          2.28500000	         -5.13514201	         10.34750652	          0.77778725	          0.20578482	          0.00000000	          0.12880522	          0.00000000	         -0.00000000	          0.00000000	          0.00000000	          0.00000000	         -0.00000000	          0.00000000	         -0.16037487	          0.00000000	          0.00000000	         -0.00000000	          0.00000000	
          2.29000000	         -0.93479708	          1.11321932	          0.12328525	          0.03225137	          0.00000000	          0.02240272	          0.00000000	         -0.00000000	          0.00000000	          0.00000000	          0.00000000	         -0.00000000	          0.00000000	         -0.03445691	          0.00000000	          0.00000000	          0.00000000	          0.00000000	
          2.29500000	          0.29355476	         -0.80856282	         -0.04961821	         -0.01322545	          0.00000000	         -0.00765290	          0.00000000	          0.00000000	          0.00000000	         -0.00000000	          0.00000000	          0.00000000	          0.00000000	          0.00768509	          0.00000000	          0.00000000	          0.00000000	          0.00000000	
          2.30000000	          0.18409937	         -0.34848139	         -0.02734999	         -0.00722383	          0.00000000	         -0.00458596	         -0.00000000	          0.00000000	         -0.00000000	         -0.00000000	          0.00000000	          0.00000000	          0.00000000	          0.00590306	          0.00000000	          0.00000000	          0.00000000	          0.00000000	
          2.30500000	          0.01998605	         -0.01038939	         -0.00231727	         -0.00059903	          0.00000000	         -0.00046092	         -0.00000000	          0.00000000	         -0.00000000	         -0.00000000	          0.00000000	          0.00000000	          0.00000000	          0.00082831	          0.00000000	          0.00000000	         -0.00000000	          0.00000000	
          2.31000000	         -0.01434926	          0.03488912	          0.00231530	          0.00061520	          0.00000000	          0.00036784	         -0.00000000	         -0.00000000	         -0.00000000	          0.00000000	          0.00000000	         -0.00000000	          0.00000000	         -0.00040731	          0.00000000	          0.00000000	         -0.00000000	          0.00000000	
          2.31500000	         -0.00620934	          0.01095180	          0.00090342	          0.00023824	          0.00000000	          0.00015360	          0.00000000	         -0.00000000	          0.00000000	          0.00000000	          0.00000000	         -0.00000000	          0.00000000	         -0.00020458	          0.00000000	          0.00000000	         -0.00000000	          0.00000000	
          2.32000000	         -0.00019141	         -0.00070200	          0.00000315	          0.00000033	          0.00000000	          0.00000334	          0.00000000	          0.00000000	          0.00000000	          0.00000000	          0.00000000	         -0.00000000	          0.00000000	         -0.00001341	          0.00000000	          0.00000000	          0.00000000	          0.00000000	
          2.32500000	          0.00061989	         -0.00138609	         -0.00009714	         -0.00002576	          0.00000000	         -0.00001573	          0.00000000	          0.00000000	          0.00000000	         -0.00000000	          0.00000000	          0.00000000	          0.00000000	          0.00001842	          0.00000000	          0.00000000	          0.00000000	          0.00000000	
          2.33000000	          0.00019533	         -0.00031413	         -0.00002770	         -0.00000729	          0.00000000	         -0.00000479	         -0.00000000	          0.00000000	         -0.00000000	         -0.00000000	          0.00000000	          0.00000000	          0.00000000	          0.00000664	          0.00000000	          0.00000000	          0.00000000	          0.00000000	
          2.33500000	         -0.00001226	          0.00006195	          0.00000274	          0.00000074	          0.00000000	          0.00000036	         -0.00000000	         -0.00000000	         -0.00000000	         -0.00000000	          0.00000000	          0.00000000	          0.00000000	         -0.00000013	          0.00000000	          0.00000000	         -0.00000000	          0.00000000	
